<?xml version="1.0" encoding="UTF-8" standalone="no"?>
<svg
   xmlns:dc="http://purl.org/dc/elements/1.1/"
   xmlns:cc="http://creativecommons.org/ns#"
   xmlns:rdf="http://www.w3.org/1999/02/22-rdf-syntax-ns#"
   xmlns:svg="http://www.w3.org/2000/svg"
   xmlns="http://www.w3.org/2000/svg"
   version="1.1"
   id="svg2"
   viewBox="0 0 21.713686 22.732952"
   height="22.732952mm"
   width="21.713686mm">
  <defs
     id="defs4" />
  <metadata
     id="metadata7">
    <rdf:RDF>
      <cc:Work
         rdf:about="">
        <dc:format>image/svg+xml</dc:format>
        <dc:type
           rdf:resource="http://purl.org/dc/dcmitype/StillImage" />
        <dc:title></dc:title>
      </cc:Work>
    </rdf:RDF>
  </metadata>
  <g
     transform="translate(-1.2383981,-0.63947544)"
     id="layer1">
    <g
       style="fill:#ffffff"
       transform="matrix(0.26458333,0,0,0.26458333,1.2389443,0.63939557)"
       id="g3337">
      <path
         style="fill:#ffffff"
         d="m 76.698,39.574 c -2.48,0 -4.566,1.686 -5.181,3.966 l -4.581,0 c -2.116,0 -3.885,-1.532 -4.269,-3.612 -0.128,-0.692 -0.287,-1.374 -0.472,-2.04 -0.543,-1.922 0.256,-3.961 1.983,-4.96 l 2.424,-1.399 c 1.403,1.394 3.617,1.737 5.406,0.687 2.039,-1.199 2.792,-3.889 1.67,-5.97 -1.199,-2.224 -3.986,-3.002 -6.159,-1.747 -1.788,1.03 -2.588,3.11 -2.08,5.011 l -2.02,1.163 c -1.859,1.076 -4.196,0.595 -5.56,-1.065 -0.487,-0.595 -1.005,-1.164 -1.548,-1.701 -1.394,-1.384 -1.686,-3.531 -0.702,-5.232 l 2.255,-3.905 c 2.608,0.697 5.483,-0.538 6.672,-3.192 1.138,-2.547 0.2,-5.632 -2.157,-7.128 -2.757,-1.742 -6.38,-0.83 -7.994,1.962 -1.316,2.28 -0.876,5.088 0.897,6.872 l -1.963,3.403 c -1.056,1.829 -3.279,2.695 -5.263,1.973 -0.682,-0.251 -1.379,-0.466 -2.091,-0.651 -1.916,-0.497 -3.259,-2.213 -3.259,-4.191 l 0,-5.228 C 45.493,11.837 47.527,9.259 47.435,6.211 47.337,2.896 44.601,0.133 41.286,0.005 37.628,-0.133 34.62,2.787 34.62,6.41 c 0,2.962 2.009,5.442 4.739,6.18 l 0,4.868 c 0,2.07 -1.465,3.854 -3.5,4.243 -0.789,0.153 -1.567,0.348 -2.326,0.579 -1.941,0.594 -4.038,-0.2 -5.052,-1.958 L 26.9,17.586 c 1.85,-1.86 2.209,-4.868 0.554,-7.148 -1.502,-2.07 -4.32,-2.839 -6.662,-1.814 -3.069,1.348 -4.217,5.006 -2.587,7.83 1.275,2.208 3.848,3.198 6.2,2.573 l 1.526,2.649 c 1.021,1.763 0.687,4.012 -0.835,5.365 -0.732,0.646 -1.425,1.342 -2.065,2.085 -1.348,1.547 -3.617,1.901 -5.396,0.876 l -1.419,-0.82 c 0.543,-2.035 -0.323,-4.258 -2.245,-5.35 -2.188,-1.245 -5.073,-0.507 -6.39,1.64 -1.414,2.29 -0.646,5.272 1.665,6.61 1.901,1.097 4.243,0.728 5.729,-0.748 l 1.532,0.881 c 1.742,1.01 2.577,3.085 1.973,5.007 -0.287,0.907 -0.518,1.839 -0.687,2.797 -0.369,2.045 -2.168,3.521 -4.248,3.521 l -2.998,0 C 9.886,41.085 7.524,39.323 4.798,39.604 c -2.47,0.256 -4.489,2.255 -4.766,4.725 -0.359,3.243 2.167,5.985 5.339,5.985 2.48,0 4.561,-1.686 5.176,-3.967 l 3.356,0 c 1.973,0 3.715,1.328 4.187,3.238 0.189,0.764 0.42,1.512 0.682,2.246 0.723,1.998 -0.031,4.232 -1.876,5.293 l -3.72,2.146 c -1.855,-1.85 -4.807,-2.279 -7.158,-0.824 -2.563,1.582 -3.49,4.984 -2.086,7.65 1.548,2.936 5.211,3.977 8.056,2.33 2.326,-1.342 3.366,-4.047 2.71,-6.527 l 4.156,-2.398 c 1.701,-0.984 3.843,-0.691 5.227,0.697 0.543,0.537 1.107,1.055 1.701,1.543 1.666,1.363 2.152,3.693 1.076,5.559 l -0.969,1.676 c -1.911,-0.508 -4.012,0.385 -4.898,2.307 -0.882,1.9 -0.169,4.232 1.609,5.334 2.023,1.25 4.673,0.574 5.852,-1.477 0.974,-1.68 0.646,-3.75 -0.661,-5.063 l 1.194,-2.07 c 0.999,-1.73 3.054,-2.531 4.976,-1.982 0.676,0.195 1.368,0.359 2.07,0.486 2.075,0.391 3.602,2.158 3.602,4.264 l 0,4.627 c -2.449,0.662 -4.207,3.014 -3.925,5.734 0.257,2.465 2.25,4.473 4.709,4.75 3.233,0.359 5.97,-2.162 5.97,-5.324 0,-2.469 -1.676,-4.545 -3.955,-5.16 l 0,-4.965 c 0,-2.01 1.389,-3.721 3.341,-4.207 0.589,-0.148 1.168,-0.318 1.742,-0.512 1.921,-0.646 4.032,0.205 5.053,1.961 l 2.438,4.229 c -1.772,1.777 -2.111,4.658 -0.527,6.846 1.435,1.979 4.135,2.717 6.374,1.732 2.941,-1.287 4.038,-4.797 2.48,-7.498 -1.225,-2.115 -3.685,-3.059 -5.934,-2.463 l -2.485,-4.301 c -1.005,-1.742 -0.718,-3.977 0.764,-5.334 0.415,-0.385 0.81,-0.779 1.193,-1.189 1.379,-1.471 3.618,-1.746 5.365,-0.742 l 5.237,3.029 c -0.682,2.561 0.436,5.369 2.905,6.697 2.685,1.445 6.139,0.533 7.764,-2.045 1.793,-2.844 0.851,-6.58 -2.035,-8.246 -2.356,-1.361 -5.257,-0.906 -7.097,0.928 L 63.85,56.34 c -1.758,-1.014 -2.604,-3.119 -1.963,-5.047 0.18,-0.527 0.339,-1.066 0.472,-1.609 0.492,-1.947 2.203,-3.336 4.212,-3.336 l 4.945,0 c 0.666,2.455 3.023,4.219 5.749,3.936 2.476,-0.256 4.489,-2.254 4.766,-4.725 0.361,-3.238 -2.166,-5.985 -5.333,-5.985 z M 30.943,51.801 c -4.068,0 -7.363,-3.301 -7.363,-7.369 0,-4.069 3.295,-7.363 7.363,-7.363 4.074,0 7.369,3.294 7.369,7.363 0.001,4.068 -3.294,7.369 -7.369,7.369 z M 47.607,33.097 c 1.63,0 2.946,1.322 2.946,2.947 0,1.629 -1.316,2.951 -2.946,2.951 -1.629,0 -2.946,-1.322 -2.946,-2.951 0,-1.625 1.318,-2.947 2.946,-2.947 z m -1.644,25.847 c -3.285,0 -5.949,-2.664 -5.949,-5.955 0,-3.283 2.664,-5.948 5.949,-5.948 3.29,0 5.954,2.665 5.954,5.948 0,3.291 -2.664,5.955 -5.954,5.955 z"
         id="path3339" />
      <circle
         style="fill:#ffffff"
         cx="31.455999"
         cy="44.604"
         r="2.5510001"
         id="circle3341" />
    </g>
  </g>
</svg>
